<svg xmlns="http://www.w3.org/2000/svg" viewBox="0 0 512 512">
  <defs>
    <linearGradient id="bg" x1="0%" y1="0%" x2="100%" y2="100%">
      <stop offset="0%" style="stop-color:#4F46E5;stop-opacity:1" />
      <stop offset="100%" style="stop-color:#7C3AED;stop-opacity:1" />
    </linearGradient>
  </defs>
  <!-- Background rounded square -->
  <rect x="32" y="32" width="448" height="448" rx="64" ry="64" fill="url(#bg)"/>
  <!-- Document icon -->
  <path d="M160 96h128l80 80v240c0 17.7-14.3 32-32 32H160c-17.7 0-32-14.3-32-32V128c0-17.7 14.3-32 32-32z" fill="white" fill-opacity="0.95"/>
  <!-- Folded corner -->
  <path d="M288 96v48c0 17.7 14.3 32 32 32h48L288 96z" fill="white" fill-opacity="0.7"/>
  <!-- Sync arrows -->
  <g fill="#4F46E5">
    <path d="M200 280h80l-20-20h-40v-40l-20 20v40z"/>
    <path d="M280 320h-80l20 20h40v40l20-20v-40z"/>
  </g>
  <!-- Vector dots representing embeddings -->
  <circle cx="180" cy="380" r="8" fill="#4F46E5" fill-opacity="0.6"/>
  <circle cx="210" cy="380" r="8" fill="#4F46E5" fill-opacity="0.8"/>
  <circle cx="240" cy="380" r="8" fill="#4F46E5"/>
  <circle cx="270" cy="380" r="8" fill="#4F46E5" fill-opacity="0.8"/>
  <circle cx="300" cy="380" r="8" fill="#4F46E5" fill-opacity="0.6"/>
</svg>
